<?xml version="1.0" encoding="UTF-8" standalone="no"?>
<svg width="677.333mm" height="344.664mm"
 viewBox="0 0 1920 977"
 xmlns="http://www.w3.org/2000/svg" xmlns:xlink="http://www.w3.org/1999/xlink"  version="1.2" baseProfile="tiny">
<title>Qt SVG Document</title>
<desc>Generated with Qt</desc>
<defs>
</defs>
<g fill="none" stroke="black" stroke-width="1" fill-rule="evenodd" stroke-linecap="square" stroke-linejoin="bevel" >

<g fill="none" stroke="#000000" stroke-opacity="1" stroke-width="1" stroke-linecap="square" stroke-linejoin="bevel" transform="matrix(1,0,0,1,0,0)"
font-family="Cantarell" font-size="11" font-weight="400" font-style="normal" 
>
</g>

<g fill="none" stroke="#000000" stroke-opacity="1" stroke-width="1" stroke-linecap="square" stroke-linejoin="bevel" transform="matrix(2.03542,0,0,2.03542,0,0)"
font-family="Cantarell" font-size="11" font-weight="400" font-style="normal" 
>
</g>

<g fill="none" stroke="#000000" stroke-opacity="1" stroke-width="1" stroke-linecap="round" stroke-linejoin="round" transform="matrix(2.03542,0,0,2.03542,0,0)"
font-family="Cantarell" font-size="11" font-weight="400" font-style="normal" 
>
<polyline fill="none" vector-effect="none" points="92.5,425.5 98.5,425.5 " />
<polyline fill="none" vector-effect="none" points="319933,425.5 319926,425.5 " />
</g>

<g fill="none" stroke="#000000" stroke-opacity="1" stroke-width="1" stroke-linecap="square" stroke-linejoin="bevel" transform="matrix(2.03542,0,0,2.03542,0,0)"
font-family="Cantarell" font-size="11" font-weight="400" font-style="normal" 
>
</g>

<g fill="none" stroke="#000000" stroke-opacity="1" stroke-width="1" stroke-linecap="square" stroke-linejoin="bevel" transform="matrix(2.03542,0,0,2.03542,65.1333,876.247)"
font-family="Cantarell" font-size="11" font-weight="400" font-style="normal" 
>
</g>

<g fill="none" stroke="#000000" stroke-opacity="1" stroke-width="1" stroke-linecap="square" stroke-linejoin="bevel" transform="matrix(2.03542,0,0,2.03542,65.1333,876.247)"
font-family="Cantarell" font-size="11" font-weight="400" font-style="normal" 
>
</g>

<g fill="none" stroke="#000000" stroke-opacity="1" stroke-width="1" stroke-linecap="square" stroke-linejoin="bevel" transform="matrix(2.03542,0,0,2.03542,65.1333,876.247)"
font-family="Cantarell" font-size="11" font-weight="400" font-style="normal" 
>
</g>

<g fill="none" stroke="#000000" stroke-opacity="1" stroke-width="1" stroke-linecap="square" stroke-linejoin="bevel" transform="matrix(2.03542,0,0,2.03542,65.1333,876.247)"
font-family="Cantarell" font-size="11" font-weight="400" font-style="normal" 
>
</g>

<g fill="none" stroke="#000000" stroke-opacity="1" stroke-width="1" stroke-linecap="square" stroke-linejoin="bevel" transform="matrix(2.03542,0,0,2.03542,65.1333,876.247)"
font-family="Cantarell" font-size="11" font-weight="400" font-style="normal" 
>
</g>

<g fill="none" stroke="#000000" stroke-opacity="1" stroke-width="1" stroke-linecap="square" stroke-linejoin="bevel" transform="matrix(2.03542,0,0,2.03542,65.1333,876.247)"
font-family="Sans" font-size="9" font-weight="400" font-style="normal" 
>
<text fill="#000000" fill-opacity="1" stroke="none" xml:space="preserve" x="0" y="0" font-family="Sans" font-size="9" font-weight="400" font-style="normal" 
 >00:00.0000</text>
</g>

<g fill="none" stroke="#000000" stroke-opacity="1" stroke-width="1" stroke-linecap="square" stroke-linejoin="bevel" transform="matrix(2.03542,0,0,2.03542,65.1333,876.247)"
font-family="Cantarell" font-size="11" font-weight="400" font-style="normal" 
>
</g>

<g fill="none" stroke="#000000" stroke-opacity="1" stroke-width="1" stroke-linecap="square" stroke-linejoin="bevel" transform="matrix(2.03542,0,0,2.03542,0,0)"
font-family="Cantarell" font-size="11" font-weight="400" font-style="normal" 
>
</g>

<g fill="none" stroke="#000000" stroke-opacity="1" stroke-width="1" stroke-linecap="round" stroke-linejoin="round" transform="matrix(2.03542,0,0,2.03542,0,0)"
font-family="Cantarell" font-size="11" font-weight="400" font-style="normal" 
>
<polyline fill="none" vector-effect="none" points="92.5,-9168.5 95.5,-9168.5 " />
<polyline fill="none" vector-effect="none" points="319933,-9168.5 319929,-9168.5 " />
<polyline fill="none" vector-effect="none" points="92.5,-18762.5 95.5,-18762.5 " />
<polyline fill="none" vector-effect="none" points="319933,-18762.5 319929,-18762.5 " />
<polyline fill="none" vector-effect="none" points="92.5,-28355.5 95.5,-28355.5 " />
<polyline fill="none" vector-effect="none" points="319933,-28355.5 319929,-28355.5 " />
<polyline fill="none" vector-effect="none" points="92.5,-37949.5 95.5,-37949.5 " />
<polyline fill="none" vector-effect="none" points="319933,-37949.5 319929,-37949.5 " />
<polyline fill="none" vector-effect="none" points="92.5,-47543.5 98.5,-47543.5 " />
<polyline fill="none" vector-effect="none" points="319933,-47543.5 319926,-47543.5 " />
<polyline fill="none" vector-effect="none" points="92.5,-57137.5 95.5,-57137.5 " />
<polyline fill="none" vector-effect="none" points="319933,-57137.5 319929,-57137.5 " />
<polyline fill="none" vector-effect="none" points="92.5,-66730.5 95.5,-66730.5 " />
<polyline fill="none" vector-effect="none" points="319933,-66730.5 319929,-66730.5 " />
<polyline fill="none" vector-effect="none" points="92.5,-76324.5 95.5,-76324.5 " />
<polyline fill="none" vector-effect="none" points="319933,-76324.5 319929,-76324.5 " />
<polyline fill="none" vector-effect="none" points="92.5,-85918.5 95.5,-85918.5 " />
<polyline fill="none" vector-effect="none" points="319933,-85918.5 319929,-85918.5 " />
<polyline fill="none" vector-effect="none" points="92.5,-95512.5 98.5,-95512.5 " />
<polyline fill="none" vector-effect="none" points="319933,-95512.5 319926,-95512.5 " />
<polyline fill="none" vector-effect="none" points="92.5,-105107 95.5,-105107 " />
<polyline fill="none" vector-effect="none" points="319933,-105107 319929,-105107 " />
<polyline fill="none" vector-effect="none" points="92.5,-114700 95.5,-114700 " />
<polyline fill="none" vector-effect="none" points="319933,-114700 319929,-114700 " />
<polyline fill="none" vector-effect="none" points="92.5,-124294 95.5,-124294 " />
<polyline fill="none" vector-effect="none" points="319933,-124294 319929,-124294 " />
<polyline fill="none" vector-effect="none" points="92.5,-133888 95.5,-133888 " />
<polyline fill="none" vector-effect="none" points="319933,-133888 319929,-133888 " />
<polyline fill="none" vector-effect="none" points="92.5,-143482 98.5,-143482 " />
<polyline fill="none" vector-effect="none" points="319933,-143482 319926,-143482 " />
<polyline fill="none" vector-effect="none" points="92.5,-153075 95.5,-153075 " />
<polyline fill="none" vector-effect="none" points="319933,-153075 319929,-153075 " />
<polyline fill="none" vector-effect="none" points="92.5,-162669 95.5,-162669 " />
<polyline fill="none" vector-effect="none" points="319933,-162669 319929,-162669 " />
<polyline fill="none" vector-effect="none" points="92.5,-172263 95.5,-172263 " />
<polyline fill="none" vector-effect="none" points="319933,-172263 319929,-172263 " />
<polyline fill="none" vector-effect="none" points="92.5,-181857 95.5,-181857 " />
<polyline fill="none" vector-effect="none" points="319933,-181857 319929,-181857 " />
<polyline fill="none" vector-effect="none" points="92.5,-191451 98.5,-191451 " />
<polyline fill="none" vector-effect="none" points="319933,-191451 319926,-191451 " />
<polyline fill="none" vector-effect="none" points="92.5,-201044 95.5,-201044 " />
<polyline fill="none" vector-effect="none" points="319933,-201044 319929,-201044 " />
<polyline fill="none" vector-effect="none" points="92.5,-210638 95.5,-210638 " />
<polyline fill="none" vector-effect="none" points="319933,-210638 319929,-210638 " />
<polyline fill="none" vector-effect="none" points="92.5,-220232 95.5,-220232 " />
<polyline fill="none" vector-effect="none" points="319933,-220232 319929,-220232 " />
<polyline fill="none" vector-effect="none" points="92.5,-229826 95.5,-229826 " />
<polyline fill="none" vector-effect="none" points="319933,-229826 319929,-229826 " />
<polyline fill="none" vector-effect="none" points="92.5,-239420 98.5,-239420 " />
<polyline fill="none" vector-effect="none" points="319933,-239420 319926,-239420 " />
<polyline fill="none" vector-effect="none" points="92.5,425.5 92.5,418.5 " />
<polyline fill="none" vector-effect="none" points="92.5,-239420 92.5,-239413 " />
</g>

<g fill="none" stroke="#000000" stroke-opacity="1" stroke-width="1" stroke-linecap="square" stroke-linejoin="bevel" transform="matrix(2.03542,0,0,2.03542,0,0)"
font-family="Cantarell" font-size="11" font-weight="400" font-style="normal" 
>
</g>

<g fill="none" stroke="#000000" stroke-opacity="1" stroke-width="1" stroke-linecap="square" stroke-linejoin="bevel" transform="matrix(2.03542,0,0,2.03542,178.099,910.849)"
font-family="Cantarell" font-size="11" font-weight="400" font-style="normal" 
>
</g>

<g fill="none" stroke="#000000" stroke-opacity="1" stroke-width="1" stroke-linecap="square" stroke-linejoin="bevel" transform="matrix(2.03542,0,0,2.03542,178.099,910.849)"
font-family="Cantarell" font-size="11" font-weight="400" font-style="normal" 
>
</g>

<g fill="none" stroke="#000000" stroke-opacity="1" stroke-width="1" stroke-linecap="square" stroke-linejoin="bevel" transform="matrix(2.03542,0,0,2.03542,178.099,910.849)"
font-family="Cantarell" font-size="11" font-weight="400" font-style="normal" 
>
</g>

<g fill="none" stroke="#000000" stroke-opacity="1" stroke-width="1" stroke-linecap="square" stroke-linejoin="bevel" transform="matrix(2.03542,0,0,2.03542,178.099,910.849)"
font-family="Cantarell" font-size="11" font-weight="400" font-style="normal" 
>
</g>

<g fill="none" stroke="#000000" stroke-opacity="1" stroke-width="1" stroke-linecap="square" stroke-linejoin="bevel" transform="matrix(2.03542,0,0,2.03542,178.099,910.849)"
font-family="Cantarell" font-size="11" font-weight="400" font-style="normal" 
>
</g>

<g fill="none" stroke="#000000" stroke-opacity="1" stroke-width="1" stroke-linecap="square" stroke-linejoin="bevel" transform="matrix(2.03542,0,0,2.03542,178.099,910.849)"
font-family="Sans" font-size="9" font-weight="400" font-style="normal" 
>
<text fill="#000000" fill-opacity="1" stroke="none" xml:space="preserve" x="0" y="0" font-family="Sans" font-size="9" font-weight="400" font-style="normal" 
 > 0</text>
</g>

<g fill="none" stroke="#000000" stroke-opacity="1" stroke-width="1" stroke-linecap="square" stroke-linejoin="bevel" transform="matrix(2.03542,0,0,2.03542,178.099,910.849)"
font-family="Cantarell" font-size="11" font-weight="400" font-style="normal" 
>
</g>

<g fill="none" stroke="#000000" stroke-opacity="1" stroke-width="1" stroke-linecap="square" stroke-linejoin="bevel" transform="matrix(2.03542,0,0,2.03542,0,0)"
font-family="Cantarell" font-size="11" font-weight="400" font-style="normal" 
>
</g>

<g fill="none" stroke="#000000" stroke-opacity="1" stroke-width="1" stroke-linecap="round" stroke-linejoin="round" transform="matrix(2.03542,0,0,2.03542,0,0)"
font-family="Cantarell" font-size="11" font-weight="400" font-style="normal" 
>
<polyline fill="none" vector-effect="none" points="32076.5,425.5 32076.5,418.5 " />
<polyline fill="none" vector-effect="none" points="32076.5,-239420 32076.5,-239413 " />
<polyline fill="none" vector-effect="none" points="64060.5,425.5 64060.5,418.5 " />
<polyline fill="none" vector-effect="none" points="64060.5,-239420 64060.5,-239413 " />
<polyline fill="none" vector-effect="none" points="96044.5,425.5 96044.5,418.5 " />
<polyline fill="none" vector-effect="none" points="96044.5,-239420 96044.5,-239413 " />
<polyline fill="none" vector-effect="none" points="128029,425.5 128029,418.5 " />
<polyline fill="none" vector-effect="none" points="128029,-239420 128029,-239413 " />
<polyline fill="none" vector-effect="none" points="160013,425.5 160013,418.5 " />
<polyline fill="none" vector-effect="none" points="160013,-239420 160013,-239413 " />
<polyline fill="none" vector-effect="none" points="191997,425.5 191997,418.5 " />
<polyline fill="none" vector-effect="none" points="191997,-239420 191997,-239413 " />
<polyline fill="none" vector-effect="none" points="223981,425.5 223981,418.5 " />
<polyline fill="none" vector-effect="none" points="223981,-239420 223981,-239413 " />
<polyline fill="none" vector-effect="none" points="255965,425.5 255965,418.5 " />
<polyline fill="none" vector-effect="none" points="255965,-239420 255965,-239413 " />
<polyline fill="none" vector-effect="none" points="287949,425.5 287949,418.5 " />
<polyline fill="none" vector-effect="none" points="287949,-239420 287949,-239413 " />
<polyline fill="none" vector-effect="none" points="319933,425.5 319933,418.5 " />
<polyline fill="none" vector-effect="none" points="319933,-239420 319933,-239413 " />
<polyline fill="none" vector-effect="none" points="92.5,-239420 92.5,425.5 319933,425.5 319933,-239420 92.5,-239420 " />
</g>

<g fill="none" stroke="#000000" stroke-opacity="1" stroke-width="1" stroke-linecap="square" stroke-linejoin="bevel" transform="matrix(2.03542,0,0,2.03542,0,0)"
font-family="Cantarell" font-size="11" font-weight="400" font-style="normal" 
>
</g>

<g fill="none" stroke="#000000" stroke-opacity="1" stroke-width="1" stroke-linecap="square" stroke-linejoin="bevel" transform="matrix(2.03542,0,0,2.03542,0,0)"
font-family="Cantarell" font-size="11" font-weight="400" font-style="normal" 
>
</g>

<g fill="none" stroke="#000000" stroke-opacity="1" stroke-width="1" stroke-linecap="square" stroke-linejoin="bevel" transform="matrix(2.03542,0,0,2.03542,0,0)"
font-family="Cantarell" font-size="11" font-weight="400" font-style="normal" 
>
</g>

<g fill="none" stroke="#000000" stroke-opacity="1" stroke-width="1" stroke-linecap="square" stroke-linejoin="bevel" transform="matrix(2.03542,0,0,2.03542,0,0)"
font-family="Cantarell" font-size="11" font-weight="400" font-style="normal" 
>
</g>

<g fill="none" stroke="#9400d3" stroke-opacity="1" stroke-width="1" stroke-linecap="round" stroke-linejoin="round" transform="matrix(2.03542,0,0,2.03542,0,0)"
font-family="Cantarell" font-size="11" font-weight="400" font-style="normal" 
>
<polyline fill="none" vector-effect="none" points="411.8,285.5 411.8,285.5 3290.4,-12902.5 32076,-105106 64060,425.5 96044,425.5 128028,425.5 160012,425.5 191996,425.5 223980,425.5 255964,425.5 287948,425.5 319932,425.5 " />
</g>

<g fill="none" stroke="#000000" stroke-opacity="1" stroke-width="1" stroke-linecap="square" stroke-linejoin="bevel" transform="matrix(2.03542,0,0,2.03542,0,0)"
font-family="Cantarell" font-size="11" font-weight="400" font-style="normal" 
>
</g>

<g fill="none" stroke="#000000" stroke-opacity="1" stroke-width="1" stroke-linecap="square" stroke-linejoin="bevel" transform="matrix(2.03542,0,0,2.03542,0,0)"
font-family="Cantarell" font-size="11" font-weight="400" font-style="normal" 
>
</g>

<g fill="none" stroke="#000000" stroke-opacity="1" stroke-width="1" stroke-linecap="square" stroke-linejoin="bevel" transform="matrix(2.03542,0,0,2.03542,0,0)"
font-family="Cantarell" font-size="11" font-weight="400" font-style="normal" 
>
</g>

<g fill="none" stroke="#000000" stroke-opacity="1" stroke-width="1" stroke-linecap="square" stroke-linejoin="bevel" transform="matrix(2.03542,0,0,2.03542,0,0)"
font-family="Cantarell" font-size="11" font-weight="400" font-style="normal" 
>
</g>

<g fill="none" stroke="#009e73" stroke-opacity="1" stroke-width="1" stroke-linecap="round" stroke-linejoin="round" transform="matrix(2.03542,0,0,2.03542,0,0)"
font-family="Cantarell" font-size="11" font-weight="400" font-style="normal" 
>
<polyline fill="none" vector-effect="none" points="411.8,-12.6 411.8,-12.6 3290.4,-28927.2 32076,-229825 64060,425.5 96044,425.5 128028,425.5 160012,425.5 191996,425.5 223980,425.5 255964,425.5 287948,425.5 319932,425.5 " />
</g>

<g fill="none" stroke="#000000" stroke-opacity="1" stroke-width="1" stroke-linecap="square" stroke-linejoin="bevel" transform="matrix(2.03542,0,0,2.03542,0,0)"
font-family="Cantarell" font-size="11" font-weight="400" font-style="normal" 
>
</g>

<g fill="none" stroke="#000000" stroke-opacity="1" stroke-width="1" stroke-linecap="square" stroke-linejoin="bevel" transform="matrix(2.03542,0,0,2.03542,0,0)"
font-family="Cantarell" font-size="11" font-weight="400" font-style="normal" 
>
</g>

<g fill="none" stroke="#000000" stroke-opacity="1" stroke-width="1" stroke-linecap="square" stroke-linejoin="bevel" transform="matrix(2.03542,0,0,2.03542,0,0)"
font-family="Cantarell" font-size="11" font-weight="400" font-style="normal" 
>
</g>

<g fill="none" stroke="#000000" stroke-opacity="1" stroke-width="1" stroke-linecap="square" stroke-linejoin="bevel" transform="matrix(2.03542,0,0,2.03542,0,0)"
font-family="Cantarell" font-size="11" font-weight="400" font-style="normal" 
>
</g>

<g fill="none" stroke="#56b4e9" stroke-opacity="1" stroke-width="1" stroke-linecap="round" stroke-linejoin="round" transform="matrix(2.03542,0,0,2.03542,0,0)"
font-family="Cantarell" font-size="11" font-weight="400" font-style="normal" 
>
<polyline fill="none" vector-effect="none" points="411.8,421.7 411.8,421.7 3290.4,413.3 32076,327.9 64060,425.5 96044,425.5 128028,425.5 160012,425.5 191996,425.5 223980,425.5 255964,425.5 287948,425.5 319932,425.5 " />
</g>

<g fill="none" stroke="#000000" stroke-opacity="1" stroke-width="1" stroke-linecap="square" stroke-linejoin="bevel" transform="matrix(2.03542,0,0,2.03542,0,0)"
font-family="Cantarell" font-size="11" font-weight="400" font-style="normal" 
>
</g>

<g fill="none" stroke="#000000" stroke-opacity="1" stroke-width="1" stroke-linecap="square" stroke-linejoin="bevel" transform="matrix(2.03542,0,0,2.03542,0,0)"
font-family="Cantarell" font-size="11" font-weight="400" font-style="normal" 
>
</g>

<g fill="none" stroke="#000000" stroke-opacity="1" stroke-width="1" stroke-linecap="square" stroke-linejoin="bevel" transform="matrix(2.03542,0,0,2.03542,0,0)"
font-family="Cantarell" font-size="11" font-weight="400" font-style="normal" 
>
</g>

<g fill="none" stroke="#000000" stroke-opacity="1" stroke-width="1" stroke-linecap="square" stroke-linejoin="bevel" transform="matrix(2.03542,0,0,2.03542,0,0)"
font-family="Cantarell" font-size="11" font-weight="400" font-style="normal" 
>
</g>

<g fill="none" stroke="#e69f00" stroke-opacity="1" stroke-width="1" stroke-linecap="round" stroke-linejoin="round" transform="matrix(2.03542,0,0,2.03542,0,0)"
font-family="Cantarell" font-size="11" font-weight="400" font-style="normal" 
>
<polyline fill="none" vector-effect="none" points="411.8,411.7 411.8,411.7 3290.4,255.2 32076,-1447.7 64060,425.5 96044,425.5 128028,425.5 160012,425.5 191996,425.5 223980,425.5 255964,425.5 287948,425.5 319932,425.5 " />
</g>

<g fill="none" stroke="#000000" stroke-opacity="1" stroke-width="1" stroke-linecap="square" stroke-linejoin="bevel" transform="matrix(2.03542,0,0,2.03542,0,0)"
font-family="Cantarell" font-size="11" font-weight="400" font-style="normal" 
>
</g>

<g fill="none" stroke="#000000" stroke-opacity="1" stroke-width="1" stroke-linecap="square" stroke-linejoin="bevel" transform="matrix(2.03542,0,0,2.03542,0,0)"
font-family="Cantarell" font-size="11" font-weight="400" font-style="normal" 
>
</g>

<g fill="none" stroke="#000000" stroke-opacity="1" stroke-width="1" stroke-linecap="square" stroke-linejoin="bevel" transform="matrix(2.03542,0,0,2.03542,0,0)"
font-family="Cantarell" font-size="11" font-weight="400" font-style="normal" 
>
</g>

<g fill="none" stroke="#000000" stroke-opacity="1" stroke-width="1" stroke-linecap="square" stroke-linejoin="bevel" transform="matrix(2.03542,0,0,2.03542,0,0)"
font-family="Cantarell" font-size="11" font-weight="400" font-style="normal" 
>
</g>

<g fill="none" stroke="#f0e442" stroke-opacity="1" stroke-width="1" stroke-linecap="round" stroke-linejoin="round" transform="matrix(2.03542,0,0,2.03542,0,0)"
font-family="Cantarell" font-size="11" font-weight="400" font-style="normal" 
>
<polyline fill="none" vector-effect="none" points="411.8,396.4 411.8,396.4 3290.4,122.8 32076,-2674.5 64060,425.5 96044,425.5 128028,425.5 160012,425.5 191996,425.5 223980,425.5 255964,425.5 287948,425.5 319932,425.5 " />
</g>

<g fill="none" stroke="#000000" stroke-opacity="1" stroke-width="1" stroke-linecap="square" stroke-linejoin="bevel" transform="matrix(2.03542,0,0,2.03542,0,0)"
font-family="Cantarell" font-size="11" font-weight="400" font-style="normal" 
>
</g>

<g fill="none" stroke="#000000" stroke-opacity="1" stroke-width="1" stroke-linecap="square" stroke-linejoin="bevel" transform="matrix(2.03542,0,0,2.03542,0,0)"
font-family="Cantarell" font-size="11" font-weight="400" font-style="normal" 
>
</g>

<g fill="none" stroke="#000000" stroke-opacity="1" stroke-width="1" stroke-linecap="round" stroke-linejoin="round" transform="matrix(2.03542,0,0,2.03542,0,0)"
font-family="Cantarell" font-size="11" font-weight="400" font-style="normal" 
>
<polyline fill="none" vector-effect="none" points="92.5,-239420 92.5,425.5 319933,425.5 319933,-239420 92.5,-239420 " />
</g>

<g fill="none" stroke="#000000" stroke-opacity="1" stroke-width="1" stroke-linecap="square" stroke-linejoin="bevel" transform="matrix(2.03542,0,0,2.03542,0,0)"
font-family="Cantarell" font-size="11" font-weight="400" font-style="normal" 
>
</g>

<g fill="none" stroke="#000000" stroke-opacity="1" stroke-width="1" stroke-linecap="square" stroke-linejoin="bevel" transform="matrix(1,0,0,1,0,0)"
font-family="Cantarell" font-size="11" font-weight="400" font-style="normal" 
>
</g>
</g>
</svg>
